<svg xmlns="http://www.w3.org/2000/svg" width="495" height="265" viewBox="0 0 495 265">
  <defs>
    <style>
      .text { font: 600 16px 'Segoe UI', Ubuntu, sans-serif; fill: #e6edf3; }
      .label { font: 400 12px 'Segoe UI', Ubuntu, sans-serif; fill: #8b949e; }
      .pct { font: 600 12px 'Segoe UI', Ubuntu, sans-serif; fill: #e6edf3; }
    </style>
  </defs>
  <rect width="495" height="265" rx="8" fill="#0d1117"/>
  <text x="24" y="35" class="text">📊 Top Languages</text>

  <text x="24" y="73" class="label">Python</text>
  <rect x="130" y="59" width="355" height="20" rx="4" fill="#21262d"/>
  <rect x="130" y="59" width="339.8" height="20" rx="4" fill="#3572A5"/>
  <text x="471" y="73" class="pct" text-anchor="end">95.7%</text>

  <text x="24" y="111" class="label">TypeScript</text>
  <rect x="130" y="97" width="355" height="20" rx="4" fill="#21262d"/>
  <rect x="130" y="97" width="7.3" height="20" rx="4" fill="#3178c6"/>
  <text x="471" y="111" class="pct" text-anchor="end">2.1%</text>

  <text x="24" y="149" class="label">Go</text>
  <rect x="130" y="135" width="355" height="20" rx="4" fill="#21262d"/>
  <rect x="130" y="135" width="7.3" height="20" rx="4" fill="#00ADD8"/>
  <text x="471" y="149" class="pct" text-anchor="end">2.0%</text>

  <text x="24" y="187" class="label">Makefile</text>
  <rect x="130" y="173" width="355" height="20" rx="4" fill="#21262d"/>
  <rect x="130" y="173" width="4.0" height="20" rx="4" fill="#8b8b8b"/>
  <text x="471" y="187" class="pct" text-anchor="end">0.1%</text>

  <text x="24" y="225" class="label">HTML</text>
  <rect x="130" y="211" width="355" height="20" rx="4" fill="#21262d"/>
  <rect x="130" y="211" width="4.0" height="20" rx="4" fill="#e34c26"/>
  <text x="471" y="225" class="pct" text-anchor="end">0.1%</text>
</svg>